<svg width="19" height="19" viewBox="0 0 19 19" fill="none" xmlns="http://www.w3.org/2000/svg">
<g clip-path="url(#clip0_361_3697)">
<path d="M13.4451 3.17454C13.6421 2.97756 13.8759 2.8213 14.1333 2.7147C14.3906 2.60809 14.6665 2.55322 14.9451 2.55322C15.2236 2.55322 15.4995 2.60809 15.7569 2.7147C16.0142 2.8213 16.2481 2.97756 16.4451 3.17454C16.6421 3.37153 16.7983 3.60538 16.9049 3.86275C17.0115 4.12012 17.0664 4.39597 17.0664 4.67454C17.0664 4.95312 17.0115 5.22897 16.9049 5.48634C16.7983 5.74371 16.6421 5.97756 16.4451 6.17454L6.32007 16.2995L2.19507 17.4245L3.32007 13.2995L13.4451 3.17454Z" stroke="#8E8E8E" stroke-width="2" stroke-linecap="round" stroke-linejoin="round"/>
</g>
<defs>
<clipPath id="clip0_361_3697">
<rect width="18" height="18" fill="white" transform="translate(0.695068 0.924316)"/>
</clipPath>
</defs>
</svg>
