<svg width="49" height="49" viewBox="0 0 49 49" fill="none" xmlns="http://www.w3.org/2000/svg">
<rect x="1.46411" y="1.34863" width="47" height="47" rx="23.5" fill="white"/>
<rect x="1.46411" y="1.34863" width="47" height="47" rx="23.5" stroke="#E1E1E1"/>
<path d="M29.3439 19.81L28.7141 24.8486H21.2141L20.5843 19.81C20.255 17.1756 22.3092 14.8486 24.9641 14.8486C27.6191 14.8486 29.6732 17.1756 29.3439 19.81ZM27.3594 19.562C27.5395 18.1212 26.4161 16.8486 24.9641 16.8486C23.5121 16.8486 22.3887 18.1212 22.5688 19.562L22.9797 22.8486H26.9485L27.3594 19.562Z" fill="#0B59C6"/>
<path d="M15.9641 27.8486C21.6939 25.3021 28.2343 25.3021 33.9641 27.8486L34.9641 34.8486H14.9641L15.9641 27.8486ZM17.2701 32.8486H32.6581L32.1456 29.2612C27.5212 27.4979 22.4071 27.4979 17.7826 29.2612L17.2701 32.8486Z" fill="#0B59C6"/>
</svg>
