<svg width="25" height="25" viewBox="0 0 25 25" fill="none" xmlns="http://www.w3.org/2000/svg">
<g clip-path="url(#clip0_386_938)">
<path d="M19.058 3.56357C19.8836 4.04025 20.258 5.03341 19.9525 5.93656L19.6213 6.91569C19.6189 6.92257 19.6244 6.9506 19.6521 6.98631C20.1512 7.63091 20.5594 8.34018 20.867 9.09396C20.8839 9.13519 20.9051 9.15373 20.9121 9.15512L21.9281 9.35834C22.863 9.54526 23.5359 10.3661 23.536 11.3195L23.536 13.68C23.5359 14.6333 22.863 15.454 21.9282 15.6411L20.913 15.8441C20.906 15.8455 20.8846 15.8641 20.8676 15.9056C20.7142 16.2799 20.5348 16.6453 20.3301 16.9997C20.1255 17.3542 19.8987 17.6922 19.6513 18.0123C19.6239 18.0478 19.6184 18.0756 19.6208 18.0825L19.9525 19.063C20.258 19.9661 19.8836 20.9594 19.0579 21.436L17.0139 22.616C16.1882 23.0929 15.1408 22.9206 14.5116 22.2044L13.8274 21.4261C13.8228 21.4208 13.7961 21.4116 13.7519 21.4177C12.9453 21.5281 12.1269 21.5292 11.3194 21.4192C11.2745 21.4131 11.2474 21.4224 11.2427 21.4278L10.5603 22.2044C9.93094 22.9204 8.88363 23.0928 8.058 22.6161L6.01383 21.4359C5.1882 20.9593 4.81381 19.966 5.11931 19.063L5.45057 18.0837C5.45286 18.077 5.44736 18.0488 5.41977 18.0132C4.92072 17.3687 4.51245 16.6594 4.20476 15.9055C4.18791 15.8642 4.16664 15.8457 4.15967 15.8443L3.14362 15.6411C2.20885 15.454 1.53598 14.6332 1.53597 13.6799L1.53594 11.3195C1.53603 10.3661 2.20886 9.54536 3.14376 9.35833L4.1587 9.15538C4.16577 9.15397 4.18723 9.13529 4.20429 9.0937C4.35784 8.7193 4.53713 8.35403 4.74168 7.99974C4.94622 7.64546 5.17291 7.30756 5.42038 6.98738C5.44783 6.95185 5.45327 6.92397 5.45097 6.91718L5.11924 5.93657C4.81373 5.03348 5.18814 4.0403 6.01377 3.56362L8.05793 2.38342C8.88356 1.90673 9.93088 2.07908 10.5602 2.79521L11.2442 3.57348C11.2489 3.57881 11.2756 3.58796 11.3198 3.58191C12.1263 3.47141 12.9448 3.47031 13.7526 3.58023C13.7973 3.58633 13.8244 3.57705 13.8291 3.57166L14.5115 2.79516C15.1409 2.07904 16.1882 1.90669 17.0138 2.38337L19.058 3.56357ZM18.058 5.29563L16.0138 4.11542L15.3314 4.89192C14.8703 5.41659 14.1731 5.65588 13.4829 5.56197C12.8552 5.47656 12.2189 5.47742 11.5913 5.56339C10.9009 5.65799 10.2032 5.41865 9.7419 4.89375L9.05794 4.11547L7.01378 5.29566L7.3455 6.27627C7.56909 6.93719 7.42829 7.65994 7.00282 8.21043C6.81012 8.45976 6.63342 8.72315 6.47373 8.99974C6.31403 9.27634 6.17428 9.56106 6.05472 9.85259C5.79072 10.4963 5.23522 10.9796 4.55097 11.1165L3.53594 11.3195L3.53597 13.6799L4.55192 13.8831C5.23712 14.0202 5.79326 14.5047 6.0565 15.1498C6.29592 15.7365 6.61338 16.288 7.00121 16.7888C7.4275 17.3396 7.5689 18.063 7.34511 18.7246L7.01383 19.7039L9.058 20.8841L9.74049 20.1075C10.2016 19.5829 10.8987 19.3437 11.589 19.4375C12.2166 19.523 12.8529 19.5221 13.4803 19.4362C14.1707 19.3415 14.8685 19.5809 15.3297 20.1058L16.0139 20.8842L18.058 19.7039L17.7263 18.7234C17.5026 18.0624 17.6434 17.3396 18.069 16.789C18.2616 16.5399 18.4383 16.2765 18.5981 15.9997C18.7579 15.723 18.8976 15.4382 19.0171 15.1469C19.2811 14.503 19.8367 14.0197 20.5208 13.883L21.5359 13.6799L21.536 11.3196L20.5199 11.1163C19.8347 10.9792 19.2785 10.4947 19.0153 9.84957C18.7759 9.26309 18.4585 8.71159 18.0707 8.21076C17.6443 7.66004 17.5029 6.93658 17.7267 6.27482L18.058 5.29563ZM15.0359 8.16962C17.4274 9.55033 18.2468 12.6083 16.866 14.9997C15.4853 17.3912 12.4274 18.2106 10.0359 16.8299C7.64445 15.4492 6.82508 12.3912 8.20579 9.99975C9.5865 7.60829 12.6445 6.78891 15.0359 8.16962ZM14.0359 9.90167C12.601 9.07325 10.7663 9.56487 9.93784 10.9997C9.10941 12.4346 9.60104 14.2694 11.0359 15.0978C12.4708 15.9263 14.3056 15.4346 15.134 13.9997C15.9624 12.5649 15.4708 10.7301 14.0359 9.90167Z" fill="#8E8E8E"/>
</g>
<defs>
<clipPath id="clip0_386_938">
<rect width="24" height="24" fill="white" transform="translate(0.535889 0.5)"/>
</clipPath>
</defs>
</svg>
