<svg width="96" height="17" viewBox="0 0 96 17" fill="none" xmlns="http://www.w3.org/2000/svg">
<g clip-path="url(#clip0_326_1853)">
<path d="M0.666626 8.6971C0.666626 8.6971 3.33329 3.36377 7.99996 3.36377C12.6666 3.36377 15.3333 8.6971 15.3333 8.6971C15.3333 8.6971 12.6666 14.0304 7.99996 14.0304C3.33329 14.0304 0.666626 8.6971 0.666626 8.6971Z" stroke="#8E8E8E" stroke-width="2" stroke-linecap="round" stroke-linejoin="round"/>
<path d="M8 10.6973C9.10457 10.6973 10 9.80184 10 8.69727C10 7.5927 9.10457 6.69727 8 6.69727C6.89543 6.69727 6 7.5927 6 8.69727C6 9.80184 6.89543 10.6973 8 10.6973Z" stroke="#8E8E8E" stroke-width="2" stroke-linecap="round" stroke-linejoin="round"/>
</g>
<g clip-path="url(#clip1_326_1853)">
<path d="M54 6.03076V14.6974H42V6.03076" stroke="#667383" stroke-width="1.5" stroke-linecap="round" stroke-linejoin="round"/>
<path d="M46.6666 8.69727H49.3333" stroke="#667383" stroke-width="2" stroke-linecap="round" stroke-linejoin="round"/>
<path d="M55.3333 2.69727H40.6666V6.0306H55.3333V2.69727Z" stroke="#667383" stroke-width="1.5" stroke-linecap="round" stroke-linejoin="round"/>
</g>
<g clip-path="url(#clip2_326_1853)">
<path d="M87.3333 4.6971V6.03044H88.6666V4.6971H87.3333Z" fill="#3B82F6"/>
<path d="M87.3333 6.6971V12.0304H88.6666V6.6971H87.3333Z" fill="#3B82F6"/>
<path d="M95.3333 8.6971C95.3333 12.7472 92.05 16.0304 88 16.0304C83.9499 16.0304 80.6666 12.7472 80.6666 8.6971C80.6666 4.64701 83.9499 1.36377 88 1.36377C92.05 1.36377 95.3333 4.64701 95.3333 8.6971ZM94 8.6971C94 5.38339 91.3137 2.6971 88 2.6971C84.6863 2.6971 82 5.38339 82 8.6971C82 12.0108 84.6863 14.6971 88 14.6971C91.3137 14.6971 94 12.0108 94 8.6971Z" fill="#3B82F6"/>
</g>
<defs>
<clipPath id="clip0_326_1853">
<rect width="16" height="16" fill="white" transform="translate(0 0.697266)"/>
</clipPath>
<clipPath id="clip1_326_1853">
<rect width="16" height="16" fill="white" transform="translate(40 0.697266)"/>
</clipPath>
<clipPath id="clip2_326_1853">
<rect width="16" height="16" fill="white" transform="translate(80 0.697266)"/>
</clipPath>
</defs>
</svg>
