<svg width="166" height="49" viewBox="0 0 166 49" fill="none" xmlns="http://www.w3.org/2000/svg">
<g clip-path="url(#clip0_170_9420)">
<rect y="0.697266" width="166" height="48" fill="white"/>
<line y1="48.1973" x2="166" y2="48.1973" stroke="#EEEEEE"/>
<g clip-path="url(#clip1_170_9420)">
<path d="M35.6666 24.6971C35.6666 24.6971 38.3333 19.3638 43 19.3638C47.6666 19.3638 50.3333 24.6971 50.3333 24.6971C50.3333 24.6971 47.6666 30.0304 43 30.0304C38.3333 30.0304 35.6666 24.6971 35.6666 24.6971Z" stroke="#8E8E8E" stroke-width="2" stroke-linecap="round" stroke-linejoin="round"/>
<path d="M43 26.6973C44.1046 26.6973 45 25.8018 45 24.6973C45 23.5927 44.1046 22.6973 43 22.6973C41.8954 22.6973 41 23.5927 41 24.6973C41 25.8018 41.8954 26.6973 43 26.6973Z" stroke="#8E8E8E" stroke-width="2" stroke-linecap="round" stroke-linejoin="round"/>
</g>
<g clip-path="url(#clip2_170_9420)">
<path d="M89 22.0308V30.6974H77V22.0308" stroke="#667383" stroke-width="1.5" stroke-linecap="round" stroke-linejoin="round"/>
<path d="M81.6666 24.6973H84.3333" stroke="#667383" stroke-width="2" stroke-linecap="round" stroke-linejoin="round"/>
<path d="M90.3333 18.6973H75.6666V22.0306H90.3333V18.6973Z" stroke="#667383" stroke-width="1.5" stroke-linecap="round" stroke-linejoin="round"/>
</g>
<g clip-path="url(#clip3_170_9420)">
<path d="M122.333 23.3638H123.667V27.3638H122.333V23.3638Z" fill="#FFAD0D"/>
<path d="M122.333 29.3638V28.0304H123.667V29.3638H122.333Z" fill="#FFAD0D"/>
<path d="M115.509 31.0554L122.409 17.83C122.658 17.3523 123.342 17.3522 123.591 17.83L130.491 31.0554C130.723 31.4992 130.401 32.0304 129.9 32.0304H116.1C115.599 32.0304 115.277 31.4992 115.509 31.0554ZM123 19.7237L117.31 30.6304H128.691L123 19.7237Z" fill="#FFAD0D"/>
</g>
</g>
<defs>
<clipPath id="clip0_170_9420">
<rect width="166" height="48" fill="white" transform="translate(0 0.697266)"/>
</clipPath>
<clipPath id="clip1_170_9420">
<rect width="16" height="16" fill="white" transform="translate(35 16.6973)"/>
</clipPath>
<clipPath id="clip2_170_9420">
<rect width="16" height="16" fill="white" transform="translate(75 16.6973)"/>
</clipPath>
<clipPath id="clip3_170_9420">
<rect width="16" height="16" fill="white" transform="translate(115 16.6973)"/>
</clipPath>
</defs>
</svg>
