<svg width="159" height="150" viewBox="0 0 159 150" fill="none" xmlns="http://www.w3.org/2000/svg">
<path d="M74.6653 136.093C76.7669 136.581 82.7296 136.914 83.9026 133.16" stroke="#0B59C6" stroke-width="2" stroke-linecap="round"/>
<path d="M77.7443 127.882C81.2633 131.254 86.8351 136.679 89.7676 132.281L91.5271 129.348" stroke="#0B59C6" stroke-width="2" stroke-linecap="round"/>
<path d="M77.7443 118.791C81.7521 122.603 94.049 131.753 99.4448 128.468C100.422 127.833 102.407 125.8 102.524 122.75" stroke="#0B59C6" stroke-width="2" stroke-linecap="round"/>
<path d="M87.4216 113.658C92.358 117.52 103.257 124.421 107.363 121.136C111.468 117.852 107.216 113.316 104.577 111.459L86.8351 97.0898" stroke="#0B59C6" stroke-width="2" stroke-linecap="round"/>
<path d="M36.3961 99.73C38.5955 100.885 41.022 103.881 41.8212 106.621C42.8476 110.14 45.7312 113.171 46.9531 114.099" stroke="#0B59C6" stroke-width="2" stroke-linecap="round"/>
<path d="M80.3836 80.0823C77.4511 78.9093 69.2401 76.5339 62.7886 77.5896C56.3371 78.6453 56.9236 76.5633 53.8445 74.8037L36.3961 64.1001" stroke="#0B59C6" stroke-width="2" stroke-linecap="round"/>
<path d="M103.844 79.2021L110.295 75.8296M109.562 117.178C112.26 116.474 116.747 112.486 118.653 110.58L126.131 106.621" stroke="#0B59C6" stroke-width="2" stroke-linecap="round"/>
<path d="M104.43 94.8911C100.129 97.4815 89.357 100.668 80.6768 93.8647" stroke="#0B59C6" stroke-width="2" stroke-linecap="round"/>
<path d="M80.6768 93.865C77.451 98.4104 69.8852 107.091 65.4278 105.448C60.9704 103.806 62.984 98.9969 64.548 96.7975C69.0934 87.7068 83.3161 71.4607 103.844 79.2025" stroke="#0B59C6" stroke-width="2" stroke-linecap="round"/>
<path d="M74.9585 130.814C74.8412 135.154 73.4433 137.021 72.7591 137.412C69.4234 139.318 65.7211 136.386 66.7543 134.002C67.4635 132.682 68.4137 129.958 68.8002 128.761C69.6998 125.975 75.0758 126.474 74.9585 130.814Z" fill="#FFBD59" stroke="#0B59C6" stroke-width="2" stroke-linecap="round"/>
<path d="M62.7886 134.919C57.862 135.975 57.8033 130.961 60.0027 128.468C60.7075 127.669 62.466 126.028 64.6947 124.216C66.9234 122.404 68.3603 123.95 68.8002 124.949C69.3811 126.269 67.7152 133.864 62.7886 134.919Z" fill="#FFBD59" stroke="#0B59C6" stroke-width="2" stroke-linecap="round"/>
<path d="M54.5776 129.055C49.1818 128.937 49.4457 124.216 51.6451 122.163C53.3557 120.355 57.7154 117.002 61.469 118.058C65.2226 119.113 64.4015 122.603 63.5217 124.363C62.7886 125.976 59.9734 129.172 54.5776 129.055Z" fill="#FFBD59" stroke="#0B59C6" stroke-width="2" stroke-linecap="round"/>
<path d="M56.3371 112.779C50.5894 111.372 45.7312 114.832 44.0206 116.738C42.8476 118.263 42.9454 120.013 43.1409 120.697C44.5485 124.216 51.0586 121.675 54.1377 119.964C57.2657 118.156 62.0848 114.187 56.3371 112.779Z" fill="#FFBD59" stroke="#0B59C6" stroke-width="2" stroke-linecap="round"/>
<path d="M64.2548 59.9946C65.1346 61.9496 66.6301 66.7687 65.5744 70.405" stroke="#0B59C6" stroke-width="2" stroke-linecap="round"/>
<path d="M69.68 63.6597C69.9243 64.7349 70.4131 67.3253 70.4131 69.0848" stroke="#0B59C6" stroke-width="2" stroke-linecap="round"/>
<path d="M88.0081 53.2495L91.3804 65.1261" stroke="#0B59C6" stroke-width="2" stroke-linecap="round"/>
<path d="M97.5387 58.5273L96.5124 65.5653" stroke="#0B59C6" stroke-width="2" stroke-linecap="round"/>
<path d="M106.629 63.6597L101.498 67.6185" stroke="#0B59C6" stroke-width="2" stroke-linecap="round"/>
<circle cx="5.16494" cy="76.563" r="3.54538" fill="#FFBD59" stroke="#0B59C6" stroke-width="2"/>
<path d="M12.6353 76.9517C20.3247 76.16 32.3902 77.0961 33.8163 83.0441C35.2423 88.9921 29.7968 91.1675 26.8958 91.5117C15.851 93.2672 1.20604 92.4411 1.20604 83.0441" stroke="#0B59C6" stroke-width="2" stroke-linecap="round"/>
<circle cx="9.85697" cy="85.067" r="1" fill="#FFBD59" stroke="#0B59C6" stroke-width="1.22575"/>
<mask id="path-22-inside-1_114_7949" fill="white">
<ellipse cx="17.3348" cy="85.067" rx="1.7595" ry="1.61288"/>
</mask>
<ellipse cx="17.3348" cy="85.067" rx="1.7595" ry="1.61288" fill="#FFBD59"/>
<path d="M17.0943 85.067C17.0943 84.9007 17.1719 84.7842 17.2275 84.7331C17.2803 84.6848 17.3235 84.6799 17.3348 84.6799V88.6799C19.2438 88.6799 21.0943 87.2226 21.0943 85.067H17.0943ZM17.3348 84.6799C17.3462 84.6799 17.3894 84.6848 17.4421 84.7331C17.4978 84.7842 17.5753 84.9007 17.5753 85.067H13.5753C13.5753 87.2226 15.4259 88.6799 17.3348 88.6799V84.6799ZM17.5753 85.067C17.5753 85.2332 17.4978 85.3498 17.4421 85.4008C17.3894 85.4492 17.3462 85.4541 17.3348 85.4541V81.4541C15.4259 81.4541 13.5753 82.9114 13.5753 85.067H17.5753ZM17.3348 85.4541C17.3235 85.4541 17.2803 85.4492 17.2275 85.4008C17.1719 85.3498 17.0943 85.2332 17.0943 85.067H21.0943C21.0943 82.9114 19.2438 81.4541 17.3348 81.4541V85.4541Z" fill="#0B59C6" mask="url(#path-22-inside-1_114_7949)"/>
<circle cx="24.8127" cy="85.067" r="1" fill="#FFBD59" stroke="#0B59C6" stroke-width="1.22575"/>
<circle cx="132.729" cy="131.401" r="3.25213" fill="#FFBD59" stroke="#0B59C6" stroke-width="2"/>
<path d="M139.642 128.321C142.221 128.321 149.589 128.321 153.055 128.321C155.863 128.321 157.215 128.942 157.215 133.289C157.215 137.513 157.18 142.984 157.215 145.192C157.239 146.745 156.466 148.463 153.887 148.712C151.309 148.96 140.959 148.815 136.107 148.712C134.305 148.712 131.116 147.69 131.116 143.536L131.116 138.879" stroke="#0B59C6" stroke-width="2" stroke-linecap="round"/>
<path d="M137.861 135.653L144.312 140.052" stroke="#0B59C6" stroke-width="2" stroke-linecap="round"/>
<path d="M144.312 140.051L156.042 129.201" stroke="#0B59C6" stroke-width="2" stroke-linecap="round"/>
<path d="M135.515 143.864L140.244 137.412M147.285 137.412L153.696 143.864" stroke="#0B59C6" stroke-width="2" stroke-linecap="round"/>
<path d="M134.856 59.7144L119.607 71.2977C100.252 86.1069 119.167 102.724 126.205 106.488L148.639 92.1185" stroke="#0B59C6" stroke-width="2" stroke-linecap="round"/>
<path d="M69.9436 22.236C72.1429 21.9428 76.8643 20.2713 78.1546 15.9312" stroke="#0B59C6" stroke-width="2" stroke-linecap="round"/>
<path d="M62.759 18.7167C64.2252 18.7656 67.5976 18.0422 69.3571 14.7578" stroke="#0B59C6" stroke-width="2" stroke-linecap="round"/>
<path d="M56.1608 13.4387C58.5068 12.9515 63.6094 11.4341 65.2516 9.26221" stroke="#0B59C6" stroke-width="2" stroke-linecap="round"/>
<path d="M77.0878 29.6724C63.2927 32.5351 50.4146 19.779 44.4438 11.3679C43.6941 10.3119 44.2144 8.86555 45.4422 8.45379L66.0932 1.52821C66.8317 1.28055 67.6417 1.489 68.2065 2.02537C74.8971 8.37905 85.8855 11.7331 93.5481 13.1614C95.3561 13.4984 95.996 15.9379 94.5159 17.0296L77.831 29.3363C77.6104 29.4991 77.3561 29.6167 77.0878 29.6724Z" fill="#FFBD59" stroke="#0B59C6" stroke-width="2" stroke-linecap="round"/>
</svg>
