<svg width="33" height="33" viewBox="0 0 33 33" fill="none" xmlns="http://www.w3.org/2000/svg">
<g clip-path="url(#clip0_21_2363)">
<mask id="mask0_21_2363" style="mask-type:luminance" maskUnits="userSpaceOnUse" x="0" y="0" width="33" height="33">
<path d="M16.5549 0.924316C7.71827 0.924316 0.554932 8.08765 0.554932 16.9243C0.554932 25.761 7.71827 32.9243 16.5549 32.9243C25.3916 32.9243 32.5549 25.761 32.5549 16.9243C32.5549 8.08765 25.3916 0.924316 16.5549 0.924316Z" fill="white"/>
</mask>
<g mask="url(#mask0_21_2363)">
<path d="M35.7549 -2.27563H-2.64508V36.1244H35.7549V-2.27563Z" fill="#001B3D"/>
</g>
<path d="M16.2571 23.1316C15.0988 23.5069 13.8464 23.6942 12.4998 23.6942C7.80375 23.6942 5.45575 21.3622 5.45575 16.6982C5.45575 12.2842 7.80375 10.0769 12.4998 10.0769C13.8464 10.0769 15.0988 10.2646 16.2571 10.6396V12.1422C15.0988 11.7042 13.9091 11.4849 12.6877 11.4849C9.02542 11.4849 7.19442 13.2229 7.19442 16.6982C7.19442 20.4236 9.02542 22.2862 12.6877 22.2862C13.9091 22.2862 15.0988 22.0672 16.2571 21.6289V23.1316Z" fill="white"/>
<path d="M12.5919 16.0021V20.0421H11.8799V16.0021H12.5919ZM12.5919 14.5408V15.2141H11.8799V14.5408H12.5919Z" fill="white"/>
<path d="M14.6115 16.0021V20.0421H13.8995V16.0021H14.6115ZM14.6115 14.5408V15.2141H13.8995V14.5408H14.6115Z" fill="white"/>
<path d="M27.4092 10.6541L21.9185 23.5914H20.0638L14.5452 10.6541H16.3092L21.0492 21.8541L25.6718 10.6541H27.4092Z" fill="white"/>
</g>
<defs>
<clipPath id="clip0_21_2363">
<rect width="32" height="32" fill="white" transform="translate(0.554932 0.924316)"/>
</clipPath>
</defs>
</svg>
