<svg width="107" height="157" viewBox="0 0 107 157" fill="none" xmlns="http://www.w3.org/2000/svg">
<path d="M42.5313 17.5363C40.2876 18.0176 38.146 18.723 36.121 19.6075L37.2082 24.6758C34.5093 25.9735 32.0877 27.646 29.9757 29.6544L25.6234 26.8395C24.0475 28.4508 22.675 30.2392 21.4555 32.1246C20.2361 34.0101 19.1679 35.9953 18.3447 38.0935L22.697 40.9084C21.7314 43.6583 21.1993 46.5528 21.1227 49.5465L16.0543 50.6337C16.0782 52.8433 16.3131 55.0857 16.7944 57.3294C17.2757 59.5731 17.9811 61.7146 18.8656 63.7397L23.9339 62.6525C25.2316 65.3514 26.9041 67.773 28.9125 69.8849L26.0976 74.2373C27.7089 75.8132 29.4973 77.1857 31.3828 78.4052C33.2682 79.6246 35.2534 80.6927 37.3516 81.516L40.1665 77.1636C42.9164 78.1292 45.8109 78.6614 48.8046 78.738L49.8918 83.8064C52.1014 83.7825 54.3438 83.5475 56.5875 83.0663C58.8312 82.585 60.9727 81.8796 62.9977 80.9951L61.9106 75.9268C64.6095 74.6291 67.0311 72.9566 69.143 70.9481L73.4954 73.7631C75.0713 72.1518 76.4438 70.3634 77.6633 68.4779C78.8827 66.5925 79.9508 64.6072 80.7741 62.5091L76.4217 59.6942C77.3873 56.9443 77.9195 54.0498 77.9961 51.0561L83.0644 49.9689C83.0406 47.7593 82.8056 45.5169 82.3243 43.2732C81.8431 41.0294 81.1376 38.8879 80.2532 36.8629L75.1849 37.9501C73.8872 35.2512 72.2147 32.8296 70.2062 30.7176L73.0212 26.3653C71.4099 24.7894 69.6215 23.4168 67.736 22.1974C65.8506 20.978 63.8653 19.9098 61.7672 19.0866L58.9523 23.4389C56.2024 22.4734 53.3079 21.9412 50.3142 21.8646L49.227 16.7962C47.0174 16.8201 44.775 17.0551 42.5313 17.5363ZM46.0453 33.9188C55.0884 31.979 64.0021 37.7441 65.9419 46.7872C67.8816 55.8304 62.1166 64.744 53.0735 66.6838C44.0303 68.6235 35.1167 62.8585 33.1769 53.8153C31.2371 44.7722 37.0022 35.8586 46.0453 33.9188Z" fill="#FFBD59" stroke="#0B59C6" stroke-width="2" stroke-linecap="round" stroke-linejoin="round"/>
<path d="M27.1494 89.3294C24.9173 89.8618 22.7924 90.6161 20.7882 91.5466L21.991 96.5887C19.3224 97.9478 16.9397 99.6752 14.8743 101.731L10.4587 99.0168C8.92005 100.664 7.58877 102.483 6.41278 104.396C5.23676 106.309 4.21432 108.318 3.43924 110.434L7.85485 113.149C6.95239 115.92 6.48656 118.826 6.47844 121.821L1.43629 123.024C1.5107 125.232 1.79684 127.469 2.32931 129.701C2.86178 131.933 3.616 134.058 4.54653 136.062L9.58869 134.859C10.9477 137.528 12.6752 139.91 14.7314 141.976L12.0167 146.391C13.6637 147.93 15.483 149.261 17.3958 150.437C19.3086 151.613 21.3178 152.636 23.4342 153.411L26.1489 148.995C28.9201 149.898 31.826 150.363 34.8207 150.372L36.0235 155.414C38.232 155.339 40.4684 155.053 42.7006 154.521C44.9327 153.988 47.0575 153.234 49.0618 152.304L47.859 147.261C50.5275 145.902 52.9102 144.175 54.9757 142.119L59.3913 144.833C60.9299 143.186 62.2612 141.367 63.4372 139.454C64.6132 137.541 65.6356 135.532 66.4107 133.416L61.9951 130.701C62.8975 127.93 63.3634 125.024 63.3715 122.029L68.4137 120.827C68.3393 118.618 68.0531 116.382 67.5206 114.149C66.9882 111.917 66.234 109.793 65.3034 107.788L60.2613 108.991C58.9022 106.322 57.1748 103.94 55.1186 101.874L57.8333 97.4587C56.1863 95.9201 54.367 94.5888 52.4541 93.4128C50.5413 92.2368 48.5322 91.2144 46.4158 90.4393L43.7011 94.8549C40.9298 93.9525 38.0239 93.4866 35.0292 93.4785L33.8265 88.4364C31.618 88.5108 29.3815 88.7969 27.1494 89.3294V89.3294ZM31.0372 105.627C40.0336 103.481 49.0768 109.041 51.2228 118.037C53.3689 127.034 47.8092 136.077 38.8128 138.223C29.8164 140.369 20.7732 134.809 18.6272 125.813C16.4811 116.816 22.0408 107.773 31.0372 105.627Z" stroke="#0B59C6" stroke-width="2" stroke-linecap="round" stroke-linejoin="round"/>
<path d="M38.835 1.55225L69.9374 131.935" stroke="#0B59C6" stroke-width="2" stroke-linecap="round" stroke-dasharray="12 12"/>
<path d="M85.613 77.8148C84.5396 78.0709 83.5177 78.4336 82.5538 78.8811L83.1323 81.3059C81.8489 81.9595 80.703 82.7903 79.7097 83.7791L77.5862 82.4736C76.8463 83.2657 76.206 84.1406 75.6405 85.0605C75.0749 85.9804 74.5832 86.9467 74.2105 87.9645L76.334 89.27C75.9 90.6027 75.676 92.0002 75.6721 93.4404L73.2472 94.0189C73.283 95.081 73.4206 96.1565 73.6767 97.23C73.9327 98.3034 74.2955 99.3253 74.743 100.289L77.1678 99.7107C77.8214 100.994 78.6521 102.14 79.641 103.133L78.3355 105.257C79.1275 105.997 80.0025 106.637 80.9224 107.203C81.8423 107.768 82.8085 108.26 83.8263 108.633L85.1319 106.509C86.4646 106.943 87.8621 107.167 89.3023 107.171L89.8807 109.596C90.9428 109.56 92.0184 109.422 93.0919 109.166C94.1653 108.91 95.1872 108.548 96.1511 108.1L95.5726 105.675C96.856 105.022 98.0018 104.191 98.9951 103.202L101.119 104.508C101.859 103.715 102.499 102.841 103.064 101.921C103.63 101.001 104.122 100.034 104.494 99.0167L102.371 97.7111C102.805 96.3784 103.029 94.9809 103.033 93.5407L105.458 92.9623C105.422 91.9002 105.284 90.8246 105.028 89.7512C104.772 88.6777 104.409 87.6558 103.962 86.692L101.537 87.2704C100.883 85.987 100.053 84.8412 99.0639 83.8479L100.369 81.7243C99.5773 80.9844 98.7024 80.3441 97.7825 79.7786C96.8626 79.213 95.8964 78.7213 94.8785 78.3486L93.573 80.4721C92.2403 80.0381 90.8428 79.8141 89.4026 79.8102L88.8241 77.3853C87.762 77.4211 86.6865 77.5587 85.613 77.8148V77.8148ZM87.4827 85.6527C91.8092 84.6206 96.1583 87.2943 97.1903 91.6209C98.2224 95.9474 95.5487 100.296 91.2222 101.328C86.8956 102.361 82.5466 99.6868 81.5146 95.3603C80.4825 91.0338 83.1562 86.6848 87.4827 85.6527Z" stroke="#0B59C6" stroke-width="2" stroke-linecap="round" stroke-linejoin="round"/>
</svg>
