<svg width="134" height="141" viewBox="0 0 134 141" fill="none" xmlns="http://www.w3.org/2000/svg">
<path d="M7.97218 113.556C9.31487 109.765 8.74761 106.402 7.97215 101.808C7.00283 96.0649 5.38728 83.1702 13.5727 74.935C20.121 68.3468 27.5741 64.966 30.4821 64.0991" stroke="#0B59C6" stroke-width="2" stroke-linecap="round"/>
<path d="M24.4794 113.398C24.9476 111.758 29.5513 104.625 28.9659 99.8134C28.7553 98.4444 28.9028 95.2957 31.8093 93.6528" stroke="#0B59C6" stroke-width="2" stroke-linecap="round"/>
<path d="M21.8576 81.1744C24.0691 77.5413 30.0717 72.8024 34.8106 72.0126C39.5495 71.2228 39.9686 74.4444 39.3576 75.8122C38.441 77.8638 36.4462 80.1314 32.4566 84.4507C28.5042 88.7297 26.3464 96.6526 26.0948 100.432" stroke="#0B59C6" stroke-width="2" stroke-linecap="round"/>
<path d="M100.174 68.3882C97.1031 65.7526 89.465 61.0878 83.4817 63.514C82.9397 63.7307 81.8124 64.7489 81.639 67.0885" stroke="#0B59C6" stroke-width="2" stroke-linecap="round"/>
<path d="M93.7313 91.1259C87.7287 84.3334 84.2534 78.9626 85.0433 72.1702C85.4835 68.3843 87.6639 66.823 89.6601 68.7134C92.3096 71.2224 94.3631 74.3817 97.2476 75.6456C97.8131 75.9088 99.6075 76.4352 102.261 76.4352" stroke="#0B59C6" stroke-width="2" stroke-linecap="round"/>
<path d="M115.783 106.299C115.494 105.143 114.894 101.446 115.241 98.4997C115.674 94.817 115.282 80.9164 109.212 76.9087" stroke="#0B59C6" stroke-width="2" stroke-linecap="round"/>
<path d="M114.898 69.6425L77.7426 66.9671C77.5202 66.951 77.2911 66.9724 77.0772 67.0354C71.9751 68.5387 73.8501 71.38 75.7401 73.051C76.0317 73.3089 76.4036 73.4524 76.7913 73.4876L84.8853 74.2234" stroke="#0B59C6" stroke-width="2" stroke-linecap="round"/>
<path d="M114.74 77.225L102.256 76.4067" stroke="#0B59C6" stroke-width="2" stroke-linecap="round"/>
<path d="M116.994 73.4198C116.994 74.4974 116.676 75.4321 116.213 76.0725C115.748 76.7142 115.192 77.0008 114.677 77.0008C114.162 77.0008 113.606 76.7142 113.141 76.0725C112.677 75.4321 112.36 74.4974 112.36 73.4198C112.36 72.3423 112.677 71.4076 113.141 70.7671C113.606 70.1254 114.162 69.8389 114.677 69.8389C115.192 69.8389 115.748 70.1254 116.213 70.7671C116.676 71.4076 116.994 72.3423 116.994 73.4198Z" fill="#FFBD59" stroke="#0B59C6" stroke-width="2"/>
<path d="M110.156 75.983C108.545 73.3115 109.726 71.1518 110.887 70.0643C111.204 69.7666 111.643 69.6535 112.078 69.6737L114.01 69.7635C115.112 69.8147 115.964 70.7484 115.915 71.8504L115.771 75.1008C115.719 76.2523 114.708 77.1222 113.562 77.0006L111.494 76.7813C110.95 76.7236 110.439 76.4517 110.156 75.983Z" fill="#FFBD59" stroke="#0B59C6" stroke-width="2" stroke-linecap="round"/>
<path d="M74.1059 69.8034C74.0139 70.62 73.1124 71.0722 72.403 70.6575C71.5527 70.1605 71.694 68.8909 72.6328 68.593C73.4172 68.3441 74.1979 68.9856 74.1059 69.8034Z" fill="#FFBD59" stroke="#0B59C6" stroke-width="2"/>
<path d="M31.6789 72.644L30.1661 30.9216C30.1659 24.7638 31.3115 14.3283 44.1057 14.5011C56.8999 14.674 63.8445 14.5732 65.7175 14.5011" stroke="#0B59C6" stroke-width="2" stroke-linecap="round"/>
<path d="M80.4136 14.501H101.917C107.861 14.609 112.939 17.2017 112.939 27.1404C112.939 37.0791 112.645 57.8559 112.213 68.6948" stroke="#0B59C6" stroke-width="2" stroke-linecap="round"/>
<path d="M94.2052 120.191C85.3443 120.839 61.6473 122.566 47.3475 123.178C41.2961 123.178 33.2781 122.4 32.3272 111.511L31.6789 85.4761" stroke="#0B59C6" stroke-width="2" stroke-linecap="round"/>
<circle cx="72.9744" cy="9.60197" r="3.89689" fill="#FFBD59" stroke="#0B59C6" stroke-width="2"/>
<path d="M66.2743 12.2758C67.0495 14.5183 65.9513 16.157 63.4749 16.6961C62.2906 16.9539 60.6325 16.9764 57.4455 18.0976C53.4617 19.4991 52.708 23.4882 52.6004 26.9382C52.5142 29.6982 54.1078 30.6038 56.9071 30.7116C65.054 30.6757 82.5036 30.9272 87.162 30.9272C92.0072 30.9272 92.7117 29.0944 92.8685 27.9085C93.6437 22.0435 91.5765 19.6923 89.7461 18.8523C88.8847 18.457 86.3653 17.4723 83.1783 16.6961C79.9913 15.9199 79.4174 14.8633 79.7329 13.3539C80.5081 9.64516 80.0559 6.63364 79.7329 5.59147C79.374 4.15398 77.278 1.40837 71.7654 1.92586C64.8746 2.57273 65.3053 9.4727 66.2743 12.2758Z" fill="#FFBD59" stroke="#0B59C6" stroke-width="2" stroke-linecap="round"/>
<path d="M103.999 67.9053L104.409 27.9405C104.409 27.0777 103.921 25.5679 101.928 25.5679C99.879 25.5679 95.2767 25.6398 93.1913 25.5679" stroke="#0B59C6" stroke-width="2" stroke-linecap="round"/>
<path d="M52.0945 25.5678H42.1709C41.0922 25.46 39.0212 26.0855 39.3664 29.4503C39.7116 32.815 41.3799 84.9904 42.1709 110.657C42.1349 111.952 42.7102 114.497 45.299 114.324C47.2684 114.193 77.9158 112.467 96.2587 111.661" stroke="#0B59C6" stroke-width="2" stroke-linecap="round"/>
<path d="M107 68.3787L107.569 28.6816C107.569 27.493 107.051 25.764 104.117 26.1962" stroke="#0B59C6" stroke-width="2" stroke-linecap="round"/>
<path d="M40.256 25.8721C39.1773 25.8721 36.6963 25.8721 36.804 28.6815C36.9075 31.3816 37.8827 59.0309 38.2064 71.8539" stroke="#0B59C6" stroke-width="2" stroke-linecap="round"/>
<path d="M38.2064 78.0645L39.1772 111.779C39.2851 112.967 39.7166 114.696 44.8945 114.264" stroke="#0B59C6" stroke-width="2" stroke-linecap="round"/>
<path d="M50.7015 44.1963H70.9209" stroke="#0B59C6" stroke-width="2" stroke-linecap="round"/>
<path d="M50.8369 51.3691L94.4894 51.153" stroke="#0B59C6" stroke-width="2" stroke-linecap="round"/>
<path d="M50.9449 58.6084L85.197 58.2842" stroke="#0B59C6" stroke-width="2" stroke-linecap="round"/>
<path d="M51.274 69.8524L68.125 69.0897" stroke="#0B59C6" stroke-width="2" stroke-linecap="round"/>
<path d="M108.264 69.1685C107.474 70.6428 105.737 72.6437 107.632 76.4348" stroke="#0B59C6" stroke-width="2" stroke-linecap="round"/>
<path d="M83.1477 86.7334C82.0946 87.9869 81.5049 91.5681 87.5707 95.8647C90.572 97.8129 96.7958 103.731 97.6804 111.819" stroke="#0B59C6" stroke-width="2" stroke-linecap="round"/>
<path d="M81.568 74.0654C81.0036 75.1237 80.7558 77.1605 82.5158 79.1116C83.3829 80.0728 84.7371 81.0132 86.7808 81.8057" stroke="#0B59C6" stroke-width="2" stroke-linecap="round"/>
<path d="M82.5158 79.1118C81.3866 80.7452 80.357 84.0947 83.1477 86.7334C83.8704 87.4168 86.271 88.6843 87.5707 89.2302" stroke="#0B59C6" stroke-width="2" stroke-linecap="round"/>
<path d="M104.452 139.465C101.082 131.62 96.3642 114.633 104.452 109.452C114.562 102.976 127.673 117.666 132.254 130.303" stroke="#0B59C6" stroke-width="2" stroke-linecap="round"/>
<path d="M1.41663 133.302C2.20645 125.931 7.7036 110.885 17.0551 112.781C26.4066 114.676 28.9551 131.579 29.0604 139.793" stroke="#0B59C6" stroke-width="2" stroke-linecap="round"/>
</svg>
