<svg width="131" height="121" viewBox="0 0 131 121" fill="none" xmlns="http://www.w3.org/2000/svg">
<path d="M43.3816 7.92767C54.8831 2.0137 68.0028 0.0230935 80.7411 2.26032C93.4787 4.49681 105.135 10.8374 113.934 20.3162C122.733 29.7949 128.19 41.8907 129.475 54.7593C130.758 67.6286 127.799 80.5639 121.047 91.5941C114.295 102.624 104.121 111.144 92.0758 115.854C80.0312 120.564 66.7769 121.205 54.3335 117.68C41.8901 114.156 30.9411 106.658 23.1551 96.332C15.3698 86.0051 11.1749 73.4153 11.2101 60.483L70.4888 60.6455L43.3816 7.92767Z" fill="white" stroke="#0B59C6" stroke-width="2"/>
<path d="M1.2411 53.059C1.42011 42.8863 4.32778 32.9418 9.66899 24.2678C15.0102 15.5944 22.582 8.52119 31.5851 3.78258L56.4235 53.059H1.2411Z" fill="#FFBD59" stroke="#0B59C6" stroke-width="2"/>
</svg>
